<?xml version="1.0" encoding="UTF-8"?>
<svg xmlns="http://www.w3.org/2000/svg" width="32" height="32" viewBox="0 0 32 32" fill="none">
  <mask id="path-1-inside-1_4969_246188" fill="white">
    <path fill-rule="evenodd" clip-rule="evenodd" d="M3 21.0144C3 20.9603 3.00079 20.9065 3.00236 20.8528V14.5333C2.9357 10.92 4.28236 7.50667 6.78903 4.94667C9.2957 2.4 12.6557 1 16.269 1C23.6557 1 29.669 7.01333 29.669 14.4V22C29.669 22.0229 29.6682 22.0456 29.6667 22.0682V23.653C29.6667 24.3934 29.5181 25.0992 29.2499 25.7412C28.9921 27.4396 28.1701 28.4483 27.2533 29.1094C26.144 29.9094 24.6325 30.3337 22.7467 30.3337H15.04C14.4715 30.3337 14 29.9215 14 29.4246C14 28.9276 14.4715 28.5155 15.04 28.5155H22.0635C20.2577 27.6696 19 25.8076 19 23.653V21.0144C19 18.067 21.3535 15.667 24.2439 15.667H24.4228C25.6473 15.667 26.7754 16.0977 27.669 16.8183V14.4C27.669 8.12 22.5624 3 16.269 3C13.189 3 10.3357 4.18667 8.2157 6.34667C6.08236 8.52 4.94903 11.4133 5.00236 14.5067V16.8145C5.89527 16.0962 7.02157 15.667 8.24387 15.667H8.4228C11.3131 15.667 13.6667 18.067 13.6667 21.0144V23.653C13.6667 26.6003 11.3131 29.0003 8.4228 29.0003H8.24387C5.35355 29.0003 3 26.6003 3 23.653V21.0144Z"></path>
  </mask>
  <path fill-rule="evenodd" clip-rule="evenodd" d="M3 21.0144C3 20.9603 3.00079 20.9065 3.00236 20.8528V14.5333C2.9357 10.92 4.28236 7.50667 6.78903 4.94667C9.2957 2.4 12.6557 1 16.269 1C23.6557 1 29.669 7.01333 29.669 14.4V22C29.669 22.0229 29.6682 22.0456 29.6667 22.0682V23.653C29.6667 24.3934 29.5181 25.0992 29.2499 25.7412C28.9921 27.4396 28.1701 28.4483 27.2533 29.1094C26.144 29.9094 24.6325 30.3337 22.7467 30.3337H15.04C14.4715 30.3337 14 29.9215 14 29.4246C14 28.9276 14.4715 28.5155 15.04 28.5155H22.0635C20.2577 27.6696 19 25.8076 19 23.653V21.0144C19 18.067 21.3535 15.667 24.2439 15.667H24.4228C25.6473 15.667 26.7754 16.0977 27.669 16.8183V14.4C27.669 8.12 22.5624 3 16.269 3C13.189 3 10.3357 4.18667 8.2157 6.34667C6.08236 8.52 4.94903 11.4133 5.00236 14.5067V16.8145C5.89527 16.0962 7.02157 15.667 8.24387 15.667H8.4228C11.3131 15.667 13.6667 18.067 13.6667 21.0144V23.653C13.6667 26.6003 11.3131 29.0003 8.4228 29.0003H8.24387C5.35355 29.0003 3 26.6003 3 23.653V21.0144Z" fill="#5B37D4"></path>
  <path d="M3.00236 20.8528L4.50172 20.8967L4.50236 20.8748V20.8528H3.00236ZM3.00236 14.5333H4.50236V14.5195L4.50211 14.5057L3.00236 14.5333ZM6.78903 4.94667L5.72 3.89443L5.71726 3.89723L6.78903 4.94667ZM29.6667 22.0682L28.1703 21.9643L28.1667 22.0162V22.0682H29.6667ZM29.2499 25.7412L27.8659 25.1628L27.7946 25.3333L27.7669 25.516L29.2499 25.7412ZM27.2533 29.1094L28.1307 30.326L28.1307 30.326L27.2533 29.1094ZM22.0635 28.5155V30.0155L22.6997 27.1571L22.0635 28.5155ZM27.669 16.8183L26.7275 17.986L29.169 19.9548V16.8183H27.669ZM8.2157 6.34667L9.28616 7.39743L9.28622 7.39737L8.2157 6.34667ZM5.00236 14.5067H6.50236V14.4937L6.50214 14.4808L5.00236 14.5067ZM5.00236 16.8145H3.50236V19.9464L5.94259 17.9833L5.00236 16.8145ZM1.503 20.8089C1.50101 20.8772 1.5 20.9457 1.5 21.0144H4.5C4.5 20.975 4.50058 20.9358 4.50172 20.8967L1.503 20.8089ZM1.50236 14.5333V20.8528H4.50236V14.5333H1.50236ZM5.71726 3.89723C2.92616 6.74772 1.42862 10.5504 1.50262 14.561L4.50211 14.5057C4.44277 11.2896 5.63857 8.26561 7.86079 5.9961L5.71726 3.89723ZM16.269 -0.5C12.2583 -0.5 8.5118 1.0581 5.72001 3.89444L7.85805 5.9989C10.0796 3.7419 13.0531 2.5 16.269 2.5V-0.5ZM31.169 14.4C31.169 6.18491 24.4841 -0.5 16.269 -0.5V2.5C22.8273 2.5 28.169 7.84176 28.169 14.4H31.169ZM31.169 22V14.4H28.169V22H31.169ZM31.1631 22.1721C31.167 22.115 31.169 22.0576 31.169 22H28.169C28.169 21.9882 28.1694 21.9763 28.1703 21.9643L31.1631 22.1721ZM31.1667 23.653V22.0682H28.1667V23.653H31.1667ZM30.6339 26.3195C30.9774 25.4976 31.1667 24.5954 31.1667 23.653H28.1667C28.1667 24.1913 28.0589 24.7008 27.8659 25.1628L30.6339 26.3195ZM27.7669 25.516C27.5771 26.7664 27.0088 27.4364 26.376 27.8928L28.1307 30.326C29.3313 29.4603 30.4071 28.1127 30.7329 25.9663L27.7669 25.516ZM26.376 27.8928C25.5935 28.4571 24.4188 28.8337 22.7467 28.8337V31.8337C24.8463 31.8337 26.6945 31.3617 28.1307 30.326L26.376 27.8928ZM22.7467 28.8337H15.04V31.8337H22.7467V28.8337ZM15.04 28.8337C15.1156 28.8337 15.2072 28.8602 15.294 28.9361C15.382 29.013 15.5 29.1792 15.5 29.4246H12.5C12.5 30.9331 13.8389 31.8337 15.04 31.8337V28.8337ZM15.5 29.4246C15.5 29.6699 15.382 29.8361 15.294 29.913C15.2072 29.9889 15.1156 30.0155 15.04 30.0155V27.0155C13.8389 27.0155 12.5 27.916 12.5 29.4246H15.5ZM15.04 30.0155H22.0635V27.0155H15.04V30.0155ZM17.5 23.653C17.5 26.4009 19.1047 28.786 21.4272 29.8738L22.6997 27.1571C21.4108 26.5533 20.5 25.2143 20.5 23.653H17.5ZM17.5 21.0144V23.653H20.5V21.0144H17.5ZM24.2439 14.167C20.4976 14.167 17.5 17.2663 17.5 21.0144H20.5C20.5 18.8676 22.2095 17.167 24.2439 17.167V14.167ZM24.4228 14.167H24.2439V17.167H24.4228V14.167ZM28.6106 15.6507C27.4631 14.7254 26.0061 14.167 24.4228 14.167V17.167C25.2884 17.167 26.0876 17.47 26.7275 17.986L28.6106 15.6507ZM26.169 14.4V16.8183H29.169V14.4H26.169ZM16.269 4.5C21.7328 4.5 26.169 8.94729 26.169 14.4H29.169C29.169 7.29271 23.3919 1.5 16.269 1.5V4.5ZM9.28622 7.39737C11.1189 5.53008 13.5842 4.5 16.269 4.5V1.5C12.7939 1.5 9.55246 2.84326 7.14517 5.29597L9.28622 7.39737ZM6.50214 14.4808C6.45556 11.779 7.4416 9.27658 9.28616 7.39743L7.14523 5.2959C4.72312 7.76343 3.4425 11.0477 3.50258 14.5325L6.50214 14.4808ZM6.50236 16.8145V14.5067H3.50236V16.8145H6.50236ZM8.24387 14.167C6.66341 14.167 5.20866 14.7234 4.06214 15.6458L5.94259 17.9833C6.58188 17.469 7.37973 17.167 8.24387 17.167V14.167ZM8.4228 14.167H8.24387V17.167H8.4228V14.167ZM15.1667 21.0144C15.1667 17.2663 12.169 14.167 8.4228 14.167V17.167C10.4572 17.167 12.1667 18.8676 12.1667 21.0144H15.1667ZM15.1667 23.653V21.0144H12.1667V23.653H15.1667ZM8.4228 30.5003C12.169 30.5003 15.1667 27.401 15.1667 23.653H12.1667C12.1667 25.7997 10.4572 27.5003 8.4228 27.5003V30.5003ZM8.24387 30.5003H8.4228V27.5003H8.24387V30.5003ZM1.5 23.653C1.5 27.401 4.49762 30.5003 8.24387 30.5003V27.5003C6.20948 27.5003 4.5 25.7997 4.5 23.653H1.5ZM1.5 21.0144V23.653H4.5V21.0144H1.5Z" fill="#5B37D4" mask="url(#path-1-inside-1_4969_246188)"></path>
</svg>
