<?xml version="1.0" encoding="UTF-8"?>
<svg xmlns="http://www.w3.org/2000/svg" width="33" height="32" viewBox="0 0 33 32" fill="none">
  <path fill-rule="evenodd" clip-rule="evenodd" d="M4.69953 5.29016C6.11193 4.13295 8.04025 3.66663 10.1666 3.66663H23.5C25.6264 3.66663 27.5547 4.13295 28.9671 5.29016C30.4142 6.47585 31.1666 8.25961 31.1666 10.549V13.8637C31.1666 14.2757 30.914 14.6455 30.5302 14.7953C30.1464 14.9451 29.71 14.8442 29.431 14.5411C28.1272 13.125 26.261 12.24 24.1865 12.24C20.2506 12.24 17.0599 15.4307 17.0599 19.3666V19.6333C17.0599 21.3012 17.6316 22.8328 18.5905 24.0468C18.8281 24.3475 18.8729 24.7577 18.7058 25.1026C18.5387 25.4475 18.1891 25.6666 17.8058 25.6666H10.1666C8.04025 25.6666 6.11193 25.2003 4.69953 24.0431C3.25239 22.8574 2.49997 21.0736 2.49997 18.7843V10.549C2.49997 8.25961 3.25239 6.47585 4.69953 5.29016ZM8.49997 9.99996C7.94769 9.99996 7.49997 10.4477 7.49997 11C7.49997 11.5522 7.94769 12 8.49997 12H15.8333C16.3856 12 16.8333 11.5522 16.8333 11C16.8333 10.4477 16.3856 9.99996 15.8333 9.99996H8.49997ZM7.49997 15C7.49997 14.4477 7.94769 14 8.49997 14H13.1666C13.7189 14 14.1666 14.4477 14.1666 15C14.1666 15.5522 13.7189 16 13.1666 16H8.49997C7.94769 16 7.49997 15.5522 7.49997 15Z" fill="#5B37D4"></path>
  <path fill-rule="evenodd" clip-rule="evenodd" d="M24.5497 14.3333C21.7967 14.3333 19.5 16.4918 19.5 19.2331C19.5 20.537 20.0197 21.7092 20.861 22.5798L20.8554 26.6726C20.8554 27.1609 21.0317 27.7246 21.5343 28.072C22.0549 28.4318 22.6631 28.3794 23.13 28.1581L24.5526 27.484L25.9822 28.1589L25.9856 28.1605C26.4511 28.3781 27.0532 28.4254 27.5693 28.0729C28.0726 27.7292 28.2551 27.1679 28.2551 26.6726V22.5625C29.0866 21.6937 29.5995 20.5284 29.5995 19.2331C29.5995 16.4918 27.3027 14.3333 24.5497 14.3333ZM26.2551 23.8452C25.7205 24.0316 25.1458 24.1328 24.5497 24.1328C23.9592 24.1328 23.3896 24.0335 22.8593 23.8504L22.8562 26.0746L23.8747 25.592C24.1156 25.4747 24.3638 25.4432 24.5523 25.4432C24.7405 25.4432 24.9883 25.4746 25.229 25.5916L26.2551 26.076V23.8452Z" fill="#5B37D4"></path>
</svg>
