<?xml version="1.0" encoding="UTF-8"?>
<svg xmlns="http://www.w3.org/2000/svg" width="32" height="32" viewBox="0 0 32 32" fill="none">
  <path d="M15.7784 18.0223V16.2222H17.6265C18.0341 16.2222 18.4007 16.534 18.4007 17.1222C18.4007 17.7104 18.0341 18.0223 17.6265 18.0223H15.7784Z" fill="white"></path>
  <path d="M8.66734 14.4667V12.6666H10.5154C10.923 12.6666 11.2896 12.9785 11.2896 13.5667C11.2896 14.1548 10.923 14.4667 10.5154 14.4667H10.0852C10.0727 14.4665 10.0602 14.4665 10.0477 14.4667H8.66734Z" fill="white"></path>
  <path fill-rule="evenodd" clip-rule="evenodd" d="M25.0007 16.3333L25.0008 4.21891C25.0008 2.14013 22.4874 1.09907 21.0175 2.56899L18.778 4.80849C18.6607 4.92579 18.475 4.93899 18.3423 4.83946L14.7341 2.13329C13.9045 1.51107 12.7637 1.51107 11.9341 2.13329L8.32587 4.83946C8.19316 4.93899 8.00746 4.92579 7.89017 4.80849L5.65067 2.569C4.18075 1.09908 1.66742 2.14013 1.66742 4.21891V24C1.66742 25.8671 2.2315 27.4783 3.37698 28.6237C4.52246 29.7692 6.13358 30.3333 8.00075 30.3333H26.6673C27.5089 30.3333 28.2066 30.12 28.7636 29.7487C29.3143 29.3815 29.669 28.8991 29.895 28.4471C30.119 27.9991 30.226 27.5631 30.2785 27.2476C30.3052 27.0875 30.3189 26.9519 30.326 26.8524C30.3296 26.8025 30.3315 26.7612 30.3326 26.7298L30.3335 26.6903L30.3338 20.7733C30.3338 19.5059 29.9284 18.3737 29.1109 17.5562C28.2933 16.7387 27.1612 16.3333 25.8937 16.3333H25.0007ZM25.8937 18.3333H25.0007L25.0006 26.6666C25.0006 26.951 25.0941 27.3999 25.3455 27.749C25.5601 28.047 25.9265 28.3333 26.6672 28.3333C27.1589 28.3333 27.4612 28.2132 27.6542 28.0846C27.8534 27.9517 27.9987 27.7675 28.1061 27.5528C28.2154 27.3342 28.275 27.1035 28.3057 26.9189C28.3207 26.8291 28.3278 26.7564 28.3311 26.71C28.3327 26.687 28.3334 26.6711 28.3337 26.6633L28.3338 26.6602V20.7733C28.3338 19.9341 28.0725 19.3462 27.6966 18.9704C27.3208 18.5946 26.733 18.3333 25.8937 18.3333ZM13.2896 13.5667C13.2896 14.7029 12.6731 15.7734 11.6468 16.2321L12.8051 18.2866C13.0763 18.7677 12.9062 19.3776 12.4251 19.6488C11.944 19.9201 11.3341 19.7499 11.0629 19.2688L9.48318 16.4667H8.66734V18.7777C8.66734 19.33 8.21962 19.7777 7.66734 19.7777C7.11505 19.7777 6.66734 19.33 6.66734 18.7777V12.4666C6.66734 11.4743 7.47506 10.6666 8.46736 10.6666H10.5154C12.2038 10.6666 13.2896 12.0588 13.2896 13.5667ZM17.6265 20.0223H15.7784V22.3333C15.7784 22.8856 15.3307 23.3333 14.7784 23.3333C14.2262 23.3333 13.7784 22.8856 13.7784 22.3333V16.0222C13.7784 15.0299 14.5862 14.2222 15.5785 14.2222H17.6265C19.3149 14.2222 20.4007 15.6144 20.4007 17.1222C20.4007 18.6301 19.3149 20.0223 17.6265 20.0223Z" fill="white"></path>
  <path fill-rule="evenodd" clip-rule="evenodd" d="M8.66734 12.6666V14.4667H10.0477C10.0602 14.4665 10.0727 14.4665 10.0852 14.4667H10.5154C10.923 14.4667 11.2896 14.1548 11.2896 13.5667C11.2896 12.9785 10.923 12.6666 10.5154 12.6666H8.66734ZM15.7784 18.0223V16.2222H17.6265C18.0341 16.2222 18.4007 16.534 18.4007 17.1222C18.4007 17.7104 18.0341 18.0223 17.6265 18.0223H15.7784Z" fill="white"></path>
</svg>
