<?xml version="1.0" encoding="UTF-8"?>
<svg xmlns="http://www.w3.org/2000/svg" width="32" height="32" viewBox="0 0 32 32" fill="none">
  <path d="M12.0001 1.66663C8.16637 1.66663 5.08012 4.76914 5.08012 8.58663C5.08012 12.3245 8.02625 15.3679 11.7399 15.4927C11.7813 15.4941 11.8227 15.4929 11.864 15.4892C11.9536 15.481 12.0497 15.4819 12.1139 15.4883C12.1582 15.4928 12.2026 15.4942 12.247 15.4927C15.9614 15.3679 18.9046 12.3246 18.9201 8.59079L18.9201 8.58663C18.9201 4.76767 15.8191 1.66663 12.0001 1.66663Z" fill="white"></path>
  <path d="M21.8801 4.33329C21.504 4.33329 21.1598 4.54426 20.9891 4.87933C20.8186 5.21386 20.8499 5.61561 21.07 5.91965L21.0755 5.92751C21.0821 5.93699 21.0936 5.95369 21.1092 5.97729C21.1406 6.02452 21.1885 6.09911 21.2476 6.19849C21.366 6.39773 21.5277 6.69377 21.6901 7.06628C22.0172 7.81665 22.3334 8.84447 22.3334 9.99996C22.3334 11.1339 21.9859 12.1478 21.6214 12.8947C21.4407 13.2649 21.2607 13.5596 21.1284 13.7585C21.0624 13.8576 21.0089 13.9321 20.9738 13.9793C20.9563 14.0029 20.9434 14.0196 20.936 14.0291L20.9303 14.0364C20.6747 14.3513 20.6346 14.7894 20.8288 15.1455C21.0232 15.5018 21.4137 15.7053 21.8172 15.6605C21.8686 15.6548 21.9094 15.6564 21.9294 15.6589C21.9829 15.6656 22.0369 15.6679 22.0908 15.6659C25.1186 15.5526 27.5467 13.0606 27.5467 9.99996C27.5467 6.8762 25.0209 4.33329 21.8801 4.33329Z" fill="white"></path>
  <path d="M12.2297 16.5833C14.8006 16.5833 17.4223 17.2285 19.4484 18.5817C21.2696 19.7939 22.313 21.4931 22.313 23.3216C22.313 25.15 21.2698 26.8523 19.4493 28.071C17.417 29.4307 14.7918 30.08 12.2197 30.08C9.64799 30.08 7.0234 29.4311 4.99125 28.0718C3.16988 26.8596 2.12634 25.1603 2.12634 23.3316C2.12634 21.5032 3.1696 19.801 4.99006 18.5823L4.99374 18.5799C7.03164 17.2286 9.65843 16.5833 12.2297 16.5833Z" fill="white"></path>
  <path d="M24.7133 17.6911C24.3584 17.6111 23.988 17.7302 23.7462 18.0021C23.5045 18.274 23.4296 18.6561 23.5504 18.9992L23.5517 19.0028L23.5576 19.0199L23.582 19.0918C23.6035 19.1556 23.6347 19.2502 23.6725 19.3692C23.748 19.6078 23.8488 19.942 23.9492 20.3228C24.1563 21.109 24.3364 22.0026 24.3334 22.6621C24.3304 23.3229 24.1413 24.2166 23.9262 25.0023C23.822 25.383 23.7177 25.7169 23.6396 25.9552C23.6007 26.0741 23.5685 26.1686 23.5463 26.2324L23.5211 26.3042L23.515 26.3212L23.5136 26.3252C23.3898 26.666 23.4602 27.0472 23.6976 27.3213C23.9351 27.5955 24.3024 27.7196 24.6574 27.6456C25.7405 27.42 26.7894 26.9792 27.6713 26.3033C28.9254 25.3608 29.6268 24.0476 29.6268 22.66C29.6268 21.2719 28.925 19.9583 27.6702 19.0158C26.7988 18.3514 25.7659 17.9283 24.7133 17.6911Z" fill="white"></path>
</svg>
